<svg width="148" height="36" fill="none" xmlns="http://www.w3.org/2000/svg"><rect width="148" height="36" rx="4" fill="#7CB442"/><path fill-rule="evenodd" clip-rule="evenodd" d="M15.153 13.313c.074-.172.295.241.295.241s-.88 3.419.446 5.562l.303.031s.08-5.827 5.515-9.58c0 0 2.328-.762 3.557-.5 1.09.51 2.055 5.198 2.055 5.198s.472 4.45-.433 6.642c-.905 2.193-3.068 3.956-5.6 4.397-2.532.441-4.988-.895-5.843-1.626-.856-.731-2.246-2.58-2.418-4.53-.172-1.952.381-4.214 2.123-5.835z" fill="#fff"/><path d="M36.168 23V11.432h3.992c.757 0 1.403.072 1.936.216.539.144.979.35 1.32.616.347.267.6.59.76.968.16.379.24.805.24 1.28 0 .272-.04.533-.12.784-.08.245-.205.477-.376.696a2.725 2.725 0 0 1-.64.584 3.79 3.79 0 0 1-.92.448c1.59.357 2.384 1.216 2.384 2.576 0 .49-.093.944-.28 1.36a3.037 3.037 0 0 1-.816 1.08 3.939 3.939 0 0 1-1.32.704c-.523.17-1.12.256-1.792.256h-4.368zm2.152-5.072v3.392h2.184c.4 0 .733-.048 1-.144a1.7 1.7 0 0 0 .648-.384 1.35 1.35 0 0 0 .352-.56c.075-.213.112-.44.112-.68 0-.25-.04-.475-.12-.672a1.233 1.233 0 0 0-.376-.512 1.723 1.723 0 0 0-.656-.328 3.629 3.629 0 0 0-.968-.112H38.32zm0-1.488h1.72c.73 0 1.285-.133 1.664-.4s.568-.69.568-1.272c0-.603-.17-1.032-.512-1.288-.341-.256-.875-.384-1.6-.384h-1.84v3.344zm9.966-1.648v5.216c0 .501.114.89.344 1.168.234.272.584.408 1.048.408.341 0 .661-.075.96-.224.299-.155.581-.365.848-.632v-5.936h1.976V23h-1.208c-.256 0-.424-.12-.504-.36l-.136-.656c-.17.17-.347.328-.528.472a3.434 3.434 0 0 1-.584.36c-.203.096-.424.17-.664.224a3.126 3.126 0 0 1-.76.088c-.448 0-.846-.075-1.192-.224a2.428 2.428 0 0 1-.864-.648 2.874 2.874 0 0 1-.536-.984 4.308 4.308 0 0 1-.176-1.264v-5.216h1.976zm10.198 10.464a.716.716 0 0 1-.232.312c-.091.075-.232.112-.424.112h-1.472l1.536-3.288-3.32-7.6H56.3c.16 0 .282.037.368.112.085.075.149.16.192.256l1.752 4.256c.058.139.109.283.152.432.042.15.08.299.112.448.042-.155.088-.304.136-.448.053-.144.109-.29.168-.44l1.648-4.248a.583.583 0 0 1 .544-.368h1.584l-4.472 10.464zM67.197 23v-8.208h1.208c.256 0 .424.12.504.36l.136.648a3.912 3.912 0 0 1 1.104-.824c.208-.101.429-.179.664-.232.234-.053.49-.08.768-.08.448 0 .845.077 1.192.232.346.15.634.363.864.64.234.272.41.6.528.984.122.379.184.797.184 1.256V23h-1.976v-5.224c0-.501-.118-.888-.352-1.16-.23-.277-.576-.416-1.04-.416-.342 0-.662.077-.96.232a3.442 3.442 0 0 0-.848.632V23h-1.976zm12.597-8.336c.614 0 1.168.099 1.664.296.502.197.928.477 1.28.84s.624.805.816 1.328c.192.523.288 1.107.288 1.752 0 .65-.096 1.237-.288 1.76a3.8 3.8 0 0 1-.816 1.336c-.352.368-.778.65-1.28.848a4.468 4.468 0 0 1-1.664.296 4.53 4.53 0 0 1-1.672-.296 3.615 3.615 0 0 1-1.288-.848 3.896 3.896 0 0 1-.824-1.336 5.076 5.076 0 0 1-.288-1.76c0-.645.096-1.23.288-1.752a3.81 3.81 0 0 1 .824-1.328 3.668 3.668 0 0 1 1.288-.84 4.53 4.53 0 0 1 1.672-.296zm0 6.936c.683 0 1.187-.23 1.512-.688.331-.459.496-1.13.496-2.016 0-.885-.165-1.56-.496-2.024-.325-.464-.829-.696-1.512-.696-.693 0-1.205.235-1.536.704-.33.464-.496 1.136-.496 2.016 0 .88.166 1.552.496 2.016.331.459.843.688 1.536.688zm4.59-6.808h1.568a.65.65 0 0 1 .376.104c.102.07.165.157.192.264l1.176 4.384c.064.24.115.475.152.704.043.23.083.459.12.688.059-.23.12-.459.184-.688.07-.23.141-.464.216-.704l1.36-4.4a.495.495 0 0 1 .192-.264.559.559 0 0 1 .336-.104h.872a.6.6 0 0 1 .36.104c.096.07.16.157.192.264l1.344 4.48c.07.23.13.453.184.672.059.213.115.43.168.648.037-.23.078-.459.12-.688.048-.23.107-.467.176-.712l1.216-4.384a.446.446 0 0 1 .192-.264.609.609 0 0 1 .352-.104h1.496L94.328 23h-1.592c-.17 0-.293-.117-.368-.352l-1.48-4.744c-.048-.155-.093-.31-.136-.464a8.288 8.288 0 0 1-.096-.472 8.918 8.918 0 0 1-.232.952l-1.496 4.728c-.075.235-.218.352-.432.352h-1.512l-2.6-8.208zm16.44-3.36v4.576c0 .485-.024.963-.072 1.432-.048.464-.112.957-.192 1.48h-1.336a30.676 30.676 0 0 1-.192-1.48c-.048-.47-.072-.947-.072-1.432v-4.576h1.864zm-2.168 10.48c0-.165.03-.323.088-.472.064-.15.15-.277.256-.384a1.31 1.31 0 0 1 .392-.256c.15-.064.31-.096.48-.096.166 0 .323.032.472.096.15.064.278.15.384.256.107.107.192.235.256.384.064.15.096.307.096.472 0 .17-.032.33-.096.48a1.23 1.23 0 0 1-.256.376c-.106.107-.234.19-.384.248a1.182 1.182 0 0 1-.472.096c-.17 0-.33-.032-.48-.096a1.196 1.196 0 0 1-.392-.248 1.236 1.236 0 0 1-.256-.376 1.3 1.3 0 0 1-.088-.48zm10.892 1.16a6.092 6.092 0 0 1-1.76-.512 4.98 4.98 0 0 1-1.392-.952l.608-.904a.59.59 0 0 1 .208-.192.544.544 0 0 1 .28-.08c.117 0 .242.043.376.128.133.08.285.176.456.288.17.112.365.224.584.336.218.112.477.195.776.248l.304-3.584a12.647 12.647 0 0 1-1.128-.376 3.907 3.907 0 0 1-1-.568 2.71 2.71 0 0 1-.712-.904c-.182-.363-.272-.816-.272-1.36 0-.405.08-.8.24-1.184.165-.39.402-.736.712-1.04.309-.304.69-.555 1.144-.752.453-.197.973-.31 1.56-.336l.088-1.008a.554.554 0 0 1 .16-.344.494.494 0 0 1 .376-.152h.728l-.136 1.576c.565.09 1.053.25 1.464.48.41.23.768.488 1.072.776l-.48.728c-.075.107-.15.187-.224.24a.458.458 0 0 1-.272.08.756.756 0 0 1-.288-.072 30.712 30.712 0 0 0-.376-.184 6.558 6.558 0 0 0-.464-.224 3.232 3.232 0 0 0-.568-.184l-.28 3.312c.384.117.762.248 1.136.392.378.139.717.32 1.016.544a2.6 2.6 0 0 1 .736.84c.186.33.28.747.28 1.248 0 .496-.083.963-.248 1.4a3.445 3.445 0 0 1-.728 1.152c-.315.33-.704.6-1.168.808a4.687 4.687 0 0 1-1.592.376l-.096 1.176a.553.553 0 0 1-.16.336.483.483 0 0 1-.376.16h-.728l.144-1.712zm3.08-3.392c0-.203-.038-.379-.112-.528a1.198 1.198 0 0 0-.304-.408 1.888 1.888 0 0 0-.456-.304 4.798 4.798 0 0 0-.576-.232l-.272 3.248c.565-.075.992-.264 1.28-.568.293-.31.44-.712.44-1.208zm-3.888-5.232a1.288 1.288 0 0 0 .392.952c.128.117.277.224.448.32.17.09.357.173.56.248l.248-2.96a2.751 2.751 0 0 0-.752.192 1.61 1.61 0 0 0-.512.32 1.22 1.22 0 0 0-.296.432 1.38 1.38 0 0 0-.088.496zm14.297-2.176a.917.917 0 0 1-.272.688c-.176.176-.472.264-.888.264h-3.184l-.416 2.416c.523-.107 1-.16 1.432-.16.608 0 1.141.09 1.6.272.464.181.853.432 1.168.752.315.32.552.696.712 1.128.16.427.24.888.24 1.384a4.19 4.19 0 0 1-.328 1.68 3.792 3.792 0 0 1-.896 1.304c-.384.357-.84.635-1.368.832a4.81 4.81 0 0 1-1.712.296c-.363 0-.707-.037-1.032-.112a5.469 5.469 0 0 1-.92-.296 5.868 5.868 0 0 1-.792-.432 5.416 5.416 0 0 1-.648-.52l.608-.84a.598.598 0 0 1 .512-.272c.133 0 .267.043.4.128.139.085.299.179.48.28.181.101.392.195.632.28.24.085.531.128.872.128.363 0 .683-.059.96-.176.277-.117.507-.28.688-.488a2.07 2.07 0 0 0 .416-.752c.096-.293.144-.61.144-.952 0-.63-.184-1.12-.552-1.472-.363-.357-.899-.536-1.608-.536-.56 0-1.123.101-1.688.304l-1.232-.352.96-5.616h5.712v.84zm5.609 6.112c-.4 0-.792-.07-1.176-.208a3.06 3.06 0 0 1-1.032-.624 3.2 3.2 0 0 1-.72-1.04c-.181-.416-.272-.901-.272-1.456a3.668 3.668 0 0 1 2.344-3.456 4.237 4.237 0 0 1 1.608-.296c.592 0 1.123.093 1.592.28.475.187.878.448 1.208.784.336.336.592.739.768 1.208.182.47.272.984.272 1.544 0 .357-.032.696-.096 1.016-.058.32-.146.63-.264.928a6.358 6.358 0 0 1-.408.864c-.16.277-.338.557-.536.84l-2.648 3.776c-.09.128-.226.237-.408.328a1.376 1.376 0 0 1-.608.128h-1.816l3.592-4.488a10.662 10.662 0 0 0 .488-.648c-.266.17-.56.301-.88.392-.32.085-.656.128-1.008.128zm2.696-3.464c0-.315-.048-.595-.144-.84a1.725 1.725 0 0 0-.408-.632 1.777 1.777 0 0 0-.632-.392 2.224 2.224 0 0 0-.792-.136c-.298 0-.568.05-.808.152-.24.096-.445.232-.616.408a1.855 1.855 0 0 0-.384.632 2.24 2.24 0 0 0-.136.792c0 .645.166 1.139.496 1.48.336.336.811.504 1.424.504.32 0 .603-.05.848-.152.251-.101.462-.24.632-.416.171-.176.299-.384.384-.624a2.17 2.17 0 0 0 .136-.776z" fill="#fff"/></svg>