<svg width="141" height="36" fill="none" xmlns="http://www.w3.org/2000/svg"><rect width="141" height="36" rx="4" fill="#5DACF5"/><path fill-rule="evenodd" clip-rule="evenodd" d="M14 11.545c0-.66.868-1.545 1.432-1.545h15.076c.469 0 1.492.887 1.492 1.545v10.116c0 .654-.594 1.622-1.492 1.622h-9.092l-3.34 3.487s-.558.46-.558 0v-3.487h-2.086c-.612 0-1.432-.65-1.432-1.307v-10.43zM18 15a1 1 0 0 1 1-1h8a1 1 0 1 1 0 2h-8a1 1 0 0 1-1-1zm1 3a1 1 0 1 0 0 2h5a1 1 0 1 0 0-2h-5z" fill="#fff"/><path d="M47.976 18.2c.09.17.173.35.248.536.08.181.157.365.232.552.075-.192.152-.381.232-.568.08-.187.165-.365.256-.536l3.424-6.408a.996.996 0 0 1 .128-.192.456.456 0 0 1 .152-.104.722.722 0 0 1 .192-.04c.07-.005.152-.008.248-.008h1.624V23h-1.896v-7.472c0-.139.003-.29.008-.456.01-.165.024-.333.04-.504l-3.496 6.56a.955.955 0 0 1-.312.352.828.828 0 0 1-.448.12h-.296c-.17 0-.32-.04-.448-.12a.955.955 0 0 1-.312-.352l-3.544-6.584c.021.176.035.35.04.52.01.165.016.32.016.464V23h-1.896V11.432h1.624c.096 0 .179.003.248.008.07.005.13.019.184.04a.435.435 0 0 1 .16.104.809.809 0 0 1 .136.192l3.456 6.424zm12.347-3.536c.517 0 .992.083 1.424.248.437.165.813.408 1.128.728.315.315.56.704.736 1.168.176.459.264.984.264 1.576 0 .15-.008.275-.024.376a.542.542 0 0 1-.072.232.299.299 0 0 1-.136.12.665.665 0 0 1-.224.032h-5.072c.059.843.285 1.461.68 1.856.395.395.917.592 1.568.592.32 0 .595-.037.824-.112a3.68 3.68 0 0 0 .608-.248c.176-.09.328-.173.456-.248a.786.786 0 0 1 .384-.112c.08 0 .15.016.208.048a.46.46 0 0 1 .152.136l.576.72a3.382 3.382 0 0 1-.736.648c-.272.17-.557.31-.856.416a4.754 4.754 0 0 1-.904.216c-.304.043-.6.064-.888.064a4.44 4.44 0 0 1-1.592-.28 3.635 3.635 0 0 1-1.28-.84 3.99 3.99 0 0 1-.856-1.376c-.208-.55-.312-1.184-.312-1.904 0-.56.09-1.085.272-1.576a3.78 3.78 0 0 1 .776-1.288 3.697 3.697 0 0 1 1.24-.872 4.114 4.114 0 0 1 1.656-.32zm.04 1.416c-.576 0-1.027.163-1.352.488-.325.325-.533.787-.624 1.384h3.712c0-.256-.035-.496-.104-.72-.07-.23-.176-.43-.32-.6a1.474 1.474 0 0 0-.544-.4 1.811 1.811 0 0 0-.768-.152zm9.987.312a.573.573 0 0 1-.168.184.465.465 0 0 1-.224.048.731.731 0 0 1-.312-.08 9.34 9.34 0 0 0-.376-.176c-.144-.07-.31-.13-.496-.184a2.315 2.315 0 0 0-.648-.08c-.39 0-.696.083-.92.248a.77.77 0 0 0-.336.648.64.64 0 0 0 .168.448c.117.117.27.221.456.312.192.09.408.173.648.248.24.07.485.147.736.232.25.085.496.184.736.296.24.107.453.245.64.416.192.165.344.365.456.6.117.235.176.517.176.848 0 .395-.072.76-.216 1.096-.144.33-.355.619-.632.864-.278.24-.621.43-1.032.568a4.48 4.48 0 0 1-1.4.2c-.283 0-.56-.027-.832-.08a4.517 4.517 0 0 1-1.464-.528 3.417 3.417 0 0 1-.552-.4l.456-.752a.644.644 0 0 1 .208-.208.583.583 0 0 1 .304-.072.62.62 0 0 1 .344.104c.112.07.24.144.384.224.144.08.312.155.504.224.197.07.445.104.744.104.234 0 .434-.027.6-.08.17-.059.31-.133.416-.224a.783.783 0 0 0 .24-.312.935.935 0 0 0 .08-.376.655.655 0 0 0-.176-.472 1.442 1.442 0 0 0-.456-.32 3.935 3.935 0 0 0-.648-.24c-.24-.075-.488-.155-.744-.24a7.978 7.978 0 0 1-.744-.296 2.722 2.722 0 0 1-.648-.44 2.054 2.054 0 0 1-.456-.648c-.112-.256-.168-.565-.168-.928 0-.336.066-.656.2-.96.133-.304.328-.568.584-.792.261-.23.584-.41.968-.544.39-.139.837-.208 1.344-.208.565 0 1.08.093 1.544.28.464.187.85.432 1.16.736l-.448.712zm6.984 0a.573.573 0 0 1-.168.184.465.465 0 0 1-.224.048.731.731 0 0 1-.312-.08 9.34 9.34 0 0 0-.376-.176c-.144-.07-.31-.13-.496-.184a2.315 2.315 0 0 0-.648-.08c-.39 0-.696.083-.92.248a.77.77 0 0 0-.336.648.64.64 0 0 0 .168.448c.118.117.27.221.456.312.192.09.408.173.648.248.24.07.486.147.736.232.25.085.496.184.736.296.24.107.454.245.64.416.192.165.344.365.456.6.118.235.176.517.176.848 0 .395-.072.76-.216 1.096-.144.33-.354.619-.632.864-.277.24-.621.43-1.032.568a4.48 4.48 0 0 1-1.4.2c-.282 0-.56-.027-.832-.08a4.517 4.517 0 0 1-1.464-.528 3.417 3.417 0 0 1-.552-.4l.456-.752a.645.645 0 0 1 .208-.208.584.584 0 0 1 .304-.072.62.62 0 0 1 .344.104c.112.07.24.144.384.224.144.08.312.155.504.224.198.07.446.104.744.104.235 0 .435-.027.6-.08.17-.059.31-.133.416-.224a.783.783 0 0 0 .24-.312.935.935 0 0 0 .08-.376.655.655 0 0 0-.176-.472 1.442 1.442 0 0 0-.456-.32 3.935 3.935 0 0 0-.648-.24c-.24-.075-.488-.155-.744-.24a7.978 7.978 0 0 1-.744-.296 2.722 2.722 0 0 1-.648-.44 2.054 2.054 0 0 1-.456-.648c-.112-.256-.168-.565-.168-.928 0-.336.067-.656.2-.96.134-.304.328-.568.584-.792.262-.23.584-.41.968-.544.39-.139.838-.208 1.344-.208.566 0 1.08.093 1.544.28.464.187.85.432 1.16.736l-.448.712zM85.88 23h-.888a.998.998 0 0 1-.44-.08c-.107-.059-.187-.173-.24-.344l-.176-.584a6.964 6.964 0 0 1-.616.496 3.732 3.732 0 0 1-.616.352c-.214.096-.44.168-.68.216a4.09 4.09 0 0 1-.8.072c-.347 0-.667-.045-.96-.136a2.158 2.158 0 0 1-.76-.424 1.932 1.932 0 0 1-.488-.696 2.47 2.47 0 0 1-.176-.968c0-.31.08-.613.24-.912.165-.304.437-.576.816-.816.378-.245.882-.448 1.512-.608.629-.16 1.41-.25 2.344-.272v-.48c0-.55-.118-.955-.352-1.216-.23-.267-.566-.4-1.008-.4-.32 0-.587.037-.8.112-.214.075-.4.16-.56.256-.155.09-.299.173-.432.248a.885.885 0 0 1-.44.112.572.572 0 0 1-.344-.104.82.82 0 0 1-.232-.256l-.36-.632c.944-.864 2.082-1.296 3.416-1.296.48 0 .906.08 1.28.24.378.155.698.373.96.656.261.277.458.61.592 1 .138.39.208.816.208 1.28V23zm-3.84-1.232c.202 0 .389-.019.56-.056.17-.037.33-.093.48-.168.154-.075.301-.165.44-.272.144-.112.288-.243.432-.392v-1.384c-.576.027-1.059.077-1.448.152-.384.07-.694.16-.928.272-.235.112-.403.243-.504.392a.885.885 0 0 0-.144.488c0 .347.101.595.304.744.208.15.477.224.808.224zm8.623-7.12c.352 0 .682.037.992.112.309.07.592.173.848.312h2.36v.736a.408.408 0 0 1-.096.288c-.064.07-.174.117-.328.144l-.736.136c.053.139.093.285.12.44.032.155.048.317.048.488a2.433 2.433 0 0 1-.92 1.936c-.283.23-.622.408-1.016.536-.39.123-.814.184-1.272.184-.31 0-.611-.03-.904-.088-.256.155-.384.328-.384.52 0 .165.074.288.224.368.154.075.354.128.6.16.25.032.533.053.848.064.314.005.637.021.968.048.33.027.653.075.968.144.314.064.594.168.84.312.25.144.45.341.6.592.154.245.232.563.232.952 0 .363-.091.715-.272 1.056a2.772 2.772 0 0 1-.776.912c-.336.267-.75.48-1.24.64-.491.165-1.051.248-1.68.248-.624 0-1.166-.061-1.624-.184-.459-.117-.84-.277-1.144-.48a2.06 2.06 0 0 1-.672-.688 1.623 1.623 0 0 1-.224-.816c0-.384.117-.707.352-.968.234-.261.56-.47.976-.624a1.362 1.362 0 0 1-.488-.448c-.123-.187-.184-.43-.184-.728 0-.123.021-.248.064-.376.042-.133.106-.264.192-.392.09-.128.202-.248.336-.36.133-.117.29-.221.472-.312a2.621 2.621 0 0 1-.984-.896c-.235-.373-.352-.81-.352-1.312 0-.405.08-.77.24-1.096.165-.33.392-.61.68-.84a3.112 3.112 0 0 1 1.032-.536c.4-.123.834-.184 1.304-.184zm2.168 8.72c0-.16-.048-.29-.144-.392a.914.914 0 0 0-.392-.232 2.716 2.716 0 0 0-.584-.128 8.983 8.983 0 0 0-.704-.056c-.246-.016-.502-.03-.768-.04-.262-.016-.515-.04-.76-.072-.224.123-.406.27-.544.44a.89.89 0 0 0-.096.976.93.93 0 0 0 .344.328c.16.09.365.16.616.208.25.053.557.08.92.08.368 0 .685-.03.952-.088a2.09 2.09 0 0 0 .656-.232.954.954 0 0 0 .384-.352.84.84 0 0 0 .12-.44zm-2.168-4.672c.245 0 .458-.032.64-.096.181-.07.33-.163.448-.28.122-.117.213-.259.272-.424.064-.165.096-.347.096-.544 0-.405-.123-.725-.368-.96-.24-.24-.603-.36-1.088-.36-.486 0-.851.12-1.096.36-.24.235-.36.555-.36.96 0 .192.029.37.088.536.064.165.154.31.272.432.122.117.274.21.456.28.186.064.4.096.64.096zm8.833-4.032c.517 0 .992.083 1.424.248a3.1 3.1 0 0 1 1.128.728c.315.315.56.704.736 1.168.176.459.264.984.264 1.576 0 .15-.008.275-.024.376a.55.55 0 0 1-.072.232.297.297 0 0 1-.136.12.665.665 0 0 1-.224.032h-5.072c.058.843.285 1.461.68 1.856.395.395.917.592 1.568.592.32 0 .595-.037.824-.112a3.68 3.68 0 0 0 .608-.248c.176-.09.328-.173.456-.248a.784.784 0 0 1 .384-.112c.08 0 .149.016.208.048a.46.46 0 0 1 .152.136l.576.72a3.39 3.39 0 0 1-.736.648c-.272.17-.557.31-.856.416a4.754 4.754 0 0 1-.904.216c-.304.043-.6.064-.888.064a4.44 4.44 0 0 1-1.592-.28 3.634 3.634 0 0 1-1.28-.84 3.99 3.99 0 0 1-.856-1.376c-.208-.55-.312-1.184-.312-1.904 0-.56.09-1.085.272-1.576a3.78 3.78 0 0 1 .776-1.288 3.696 3.696 0 0 1 1.24-.872 4.113 4.113 0 0 1 1.656-.32zm.04 1.416c-.576 0-1.027.163-1.352.488-.326.325-.534.787-.624 1.384h3.712c0-.256-.035-.496-.104-.72a1.661 1.661 0 0 0-.32-.6 1.472 1.472 0 0 0-.544-.4 1.813 1.813 0 0 0-.768-.152zm12.977 5.184c.416 0 .786-.07 1.112-.208.33-.139.608-.333.832-.584.229-.25.402-.555.52-.912.122-.357.184-.757.184-1.2v-6.928h2.152v6.928c0 .688-.112 1.325-.336 1.912a4.319 4.319 0 0 1-.952 1.512c-.416.421-.92.752-1.512.992-.592.235-1.259.352-2 .352-.742 0-1.408-.117-2-.352a4.438 4.438 0 0 1-1.512-.992 4.467 4.467 0 0 1-.952-1.512 5.425 5.425 0 0 1-.328-1.912v-6.928h2.152v6.92c0 .443.058.843.176 1.2.122.357.296.664.52.92.224.25.498.445.823.584.331.139.705.208 1.121.208zm11.744-4.872a.564.564 0 0 1-.168.184.465.465 0 0 1-.224.048.731.731 0 0 1-.312-.08 9.54 9.54 0 0 0-.376-.176 3.112 3.112 0 0 0-.496-.184 2.311 2.311 0 0 0-.648-.08c-.389 0-.696.083-.92.248a.77.77 0 0 0-.336.648.64.64 0 0 0 .168.448c.117.117.269.221.456.312.192.09.408.173.648.248.24.07.485.147.736.232.251.085.496.184.736.296.24.107.453.245.64.416.192.165.344.365.456.6.117.235.176.517.176.848 0 .395-.072.76-.216 1.096a2.45 2.45 0 0 1-.632.864 3.04 3.04 0 0 1-1.032.568c-.405.133-.872.2-1.4.2-.283 0-.56-.027-.832-.08a4.521 4.521 0 0 1-1.464-.528 3.417 3.417 0 0 1-.552-.4l.456-.752a.648.648 0 0 1 .208-.208.582.582 0 0 1 .304-.072.62.62 0 0 1 .344.104c.112.07.24.144.384.224.144.08.312.155.504.224.197.07.445.104.744.104.235 0 .435-.027.6-.08.171-.059.309-.133.416-.224a.783.783 0 0 0 .24-.312.94.94 0 0 0 .08-.376.656.656 0 0 0-.176-.472 1.442 1.442 0 0 0-.456-.32 3.956 3.956 0 0 0-.648-.24c-.24-.075-.488-.155-.744-.24a7.913 7.913 0 0 1-.744-.296 2.722 2.722 0 0 1-.648-.44 2.044 2.044 0 0 1-.456-.648c-.112-.256-.168-.565-.168-.928 0-.336.067-.656.2-.96.133-.304.328-.568.584-.792.261-.23.584-.41.968-.544a3.993 3.993 0 0 1 1.344-.208c.565 0 1.08.093 1.544.28.464.187.851.432 1.16.736l-.448.712z" fill="#fff"/></svg>